Coordinates
version=1
nRows=5
nColumns=40
inDegrees=yes

Units are S.I. units (second, meters, Newtons, ...)
Angles are in degrees.

endheader
time	pelvis_tilt	pelvis_list	pelvis_rotation	pelvis_tx	pelvis_ty	pelvis_tz	hip_flexion_r	hip_adduction_r	hip_rotation_r	knee_angle_r	knee_angle_r_beta	ankle_angle_r	subtalar_angle_r	mtp_angle_r	hip_flexion_l	hip_adduction_l	hip_rotation_l	knee_angle_l	knee_angle_l_beta	ankle_angle_l	subtalar_angle_l	mtp_angle_l	lumbar_extension	lumbar_bending	lumbar_rotation	arm_flex_r	arm_add_r	arm_rot_r	elbow_flex_r	pro_sup_r	wrist_flex_r	wrist_dev_r	arm_flex_l	arm_add_l	arm_rot_l	elbow_flex_l	pro_sup_l	wrist_flex_l	wrist_dev_l
     39.77000000	     -2.44926900	     -4.48473938	      1.76817370	      0.91609321	      0.93154105	      0.49739800	     12.12936936	      2.60627548	    -15.97184796	     17.80842934	     17.80842934	     10.29664092	     -0.02919613	     -5.14748283	     25.71296567	    -12.12421371	     -1.68689477	     59.69409881	     59.69409881	     10.60150398	    -18.38229051	     13.28767278	     -9.17593708	      7.61059315	      2.21455768	     14.09441698	    -16.27630389	     -1.67560998	     46.88222508	     45.73448076	      0.00000000	      0.00000000	      6.80598808	     -8.12967502	     -2.34334427	     37.38145198	     45.50277852	      0.00000000	      0.00000000
     39.78357143	     -2.60796895	     -4.34918652	      2.07967933	      0.91421153	      0.93206362	      0.49740717	     11.55921277	      2.57235882	    -16.11921815	     17.12624796	     17.12624796	     10.40955359	      0.00233581	     -5.09646023	     27.04552059	    -11.85278591	     -1.63834087	     57.18345659	     57.18345659	     10.88069897	    -18.39421485	     13.25774791	     -9.15962758	      7.44505774	      2.32706835	     16.13868233	    -16.40112690	     -1.85708530	     48.21201881	     45.70421007	      0.00000000	      0.00000000	      5.46506028	     -7.80710039	     -2.20110641	     36.46136848	     45.47123541	      0.00000000	      0.00000000
     39.79714286	     -2.65181638	     -4.31647855	      2.48188473	      0.91246225	      0.93264533	      0.49728378	     10.78418398	      2.64667105	    -16.44680496	     16.30811242	     16.30811242	     10.46821162	      0.21965818	     -5.21301735	     28.03275297	    -11.62381132	     -1.53856282	     54.25071400	     54.25071400	     10.88521986	    -18.35761412	     12.93197539	     -9.26580617	      7.48654045	      2.01076165	     18.27410692	    -16.36224851	     -1.88367939	     50.24231109	     45.64049818	      0.00000000	      0.00000000	      4.17194012	     -7.57798909	     -1.98279108	     34.89839999	     45.43697006	      0.00000000	      0.00000000
     39.81071429	     -2.77924731	     -4.20815136	      2.77226222	      0.91066564	      0.93303231	      0.49724073	     10.20349223	      2.63135065	    -16.64832701	     15.66471095	     15.66471095	     10.52388041	      0.34112448	     -5.30827802	     28.85328118	    -11.26057192	     -1.51283425	     50.98511159	     50.98511159	     10.94926566	    -18.28232563	     12.85077006	     -9.31199185	      7.32313652	      2.19431216	     20.15503355	    -16.56384098	     -1.91164433	     51.81636384	     45.59378043	      0.00000000	      0.00000000	      3.04513304	     -7.28162477	     -1.79278262	     33.70679637	     45.40360010	      0.00000000	      0.00000000
     39.82428571	     -2.86743189	     -4.17523169	      3.08212687	      0.90894295	      0.93329723	      0.49703348	      9.56220806	      2.68773149	    -16.91728264	     14.97617471	     14.97617471	     10.55908151	      0.56752803	     -5.50465178	     29.48120881	    -10.89590681	     -1.39584890	     47.50380565	     47.50380565	     10.95979249	    -18.10613463	     12.63081262	     -9.41385627	      7.33865074	      2.24148022	     22.05869603	    -16.72658837	     -1.85912765	     53.74376330	     45.53133816	      0.00000000	      0.00000000	      1.96122080	     -7.01113366	     -1.54155445	     32.24547104	     45.36416691	      0.00000000	      0.00000000
